<?xml version="1.0" standalone="no"?>
<!DOCTYPE svg PUBLIC "-//W3C//DTD SVG 20010904//EN"
 "http://www.w3.org/TR/2001/REC-SVG-20010904/DTD/svg10.dtd">
<svg version="1.0" xmlns="http://www.w3.org/2000/svg"
 width="626.000000pt" height="626.000000pt" viewBox="0 0 626.000000 626.000000"
 preserveAspectRatio="xMidYMid meet">
<metadata>
Created by potrace 1.11, written by Peter Selinger 2001-2013
</metadata>
<g transform="translate(0.000000,626.000000) scale(0.100000,-0.100000)"
fill="#000000" stroke="none">
<path d="M3746 5708 c-3 -7 -8 -273 -12 -591 -3 -317 -9 -579 -13 -581 -7 -5
-118 21 -146 34 -11 6 -56 19 -100 29 -44 11 -129 34 -190 51 -60 17 -144 40
-185 51 -41 11 -101 29 -133 39 -83 29 -139 26 -201 -9 -63 -36 -86 -67 -116
-151 -12 -36 -26 -69 -30 -75 -4 -5 -15 -35 -25 -65 -10 -30 -21 -59 -25 -65
-4 -5 -15 -35 -25 -65 -9 -30 -23 -64 -29 -75 -7 -11 -20 -46 -30 -77 -10 -32
-21 -60 -26 -63 -4 -3 -11 -17 -15 -32 -3 -15 -21 -65 -40 -112 -42 -110 -49
-148 -35 -199 19 -72 86 -122 164 -122 94 0 150 62 201 220 10 30 21 60 25 65
4 6 15 35 25 65 10 30 24 64 30 75 7 11 21 45 30 75 10 30 21 60 25 65 4 6 17
40 29 77 13 37 27 70 32 73 5 4 9 15 9 26 0 21 12 24 38 9 9 -6 53 -19 97 -30
134 -33 210 -57 210 -66 -1 -5 -18 -45 -39 -89 -21 -44 -50 -105 -63 -135 -36
-78 -79 -171 -125 -270 -22 -47 -48 -103 -58 -125 -40 -90 -76 -166 -131 -283
-33 -68 -62 -136 -66 -150 -3 -15 -14 -38 -25 -51 -10 -13 -18 -28 -18 -33 0
-5 -13 -29 -30 -53 -16 -24 -30 -48 -30 -54 0 -5 -6 -16 -14 -23 -7 -8 -23
-32 -35 -54 -24 -43 -52 -90 -86 -144 -12 -19 -62 -102 -110 -185 -49 -82 -98
-166 -110 -185 -22 -35 -37 -60 -94 -157 -26 -44 -37 -54 -73 -64 -24 -6 -47
-14 -53 -18 -5 -5 -39 -16 -75 -25 -36 -10 -78 -24 -95 -31 -16 -8 -57 -21
-90 -31 -33 -9 -64 -20 -70 -24 -5 -4 -37 -15 -70 -24 -33 -9 -76 -23 -95 -31
-19 -8 -62 -22 -95 -31 -33 -9 -64 -20 -70 -24 -5 -4 -39 -16 -75 -26 -90 -24
-133 -47 -169 -91 -99 -120 -48 -317 99 -380 54 -23 171 -13 240 19 30 15 118
48 195 74 77 26 217 73 310 105 94 33 238 82 320 110 83 28 161 61 174 72 24
23 111 133 111 142 0 3 15 29 33 58 45 72 54 86 78 131 11 21 25 44 30 50 16
18 117 188 139 234 11 23 25 42 31 42 6 0 28 -14 48 -31 20 -17 56 -48 81 -69
25 -21 113 -96 197 -167 84 -72 177 -150 207 -174 30 -24 55 -47 56 -51 0 -4
-10 -18 -22 -30 -13 -13 -86 -95 -163 -183 -77 -87 -149 -168 -160 -180 -12
-11 -49 -54 -84 -95 -35 -41 -68 -80 -75 -85 -30 -26 -145 -165 -167 -200 -20
-33 -24 -53 -24 -115 0 -65 4 -82 29 -123 69 -115 203 -158 320 -103 46 22 94
66 185 171 138 158 167 191 177 200 6 6 44 48 84 95 40 47 80 92 89 101 9 9
41 45 71 80 30 35 78 89 105 119 112 122 185 208 185 218 0 5 6 12 13 15 20 7
37 76 37 148 0 79 -25 133 -88 189 -26 23 -58 52 -72 64 -14 12 -70 60 -125
106 -162 136 -319 273 -327 284 -12 17 -10 21 16 47 28 28 73 117 186 364 18
39 43 93 55 120 27 57 76 165 112 245 54 118 56 121 69 102 6 -10 19 -40 28
-67 78 -250 109 -303 190 -326 82 -23 150 9 281 132 23 21 140 120 275 233 52
44 106 90 120 102 14 12 62 55 107 94 48 40 86 82 89 96 16 63 -21 161 -83
216 -30 27 -97 40 -142 28 -46 -12 -70 -30 -321 -243 -101 -86 -189 -157 -196
-157 -6 0 -17 20 -24 45 -7 25 -16 48 -21 50 -4 3 -15 29 -25 58 -9 28 -24 70
-34 92 -9 22 -37 90 -61 150 -24 61 -54 125 -66 144 -13 19 -23 39 -23 46 0 7
105 70 233 141 651 360 811 450 814 459 3 9 -1343 825 -1374 833 -7 2 -15 -2
-17 -10z"/>
</g>
</svg>
