<?xml version="1.0" standalone="no"?>
<!DOCTYPE svg PUBLIC "-//W3C//DTD SVG 20010904//EN"
 "http://www.w3.org/TR/2001/REC-SVG-20010904/DTD/svg10.dtd">
<svg version="1.0" xmlns="http://www.w3.org/2000/svg"
 width="260.000000pt" height="260.000000pt" viewBox="0 0 260.000000 260.000000"
 preserveAspectRatio="xMidYMid meet">
<metadata>
Created by potrace 1.11, written by Peter Selinger 2001-2013
</metadata>
<g transform="translate(0.000000,260.000000) scale(0.100000,-0.100000)"
fill="#000000" stroke="none">
<path d="M1720 2480 c0 -72 -6 -141 -15 -175 -14 -54 -11 -93 10 -161 8 -26
-12 -43 -59 -51 -26 -4 -47 1 -84 20 -26 14 -88 33 -137 42 -49 9 -115 27
-146 41 -71 29 -157 41 -188 24 -30 -15 -81 -97 -81 -129 0 -13 -13 -47 -28
-75 -16 -28 -34 -73 -41 -101 -6 -27 -25 -78 -42 -112 -48 -94 -36 -173 28
-189 40 -10 52 1 107 97 8 14 20 48 27 75 6 27 22 67 35 90 12 22 28 61 34 87
18 70 36 81 122 74 83 -7 121 -29 126 -72 6 -46 -7 -92 -34 -125 -14 -16 -34
-56 -43 -88 -10 -31 -30 -75 -44 -96 -15 -21 -27 -49 -27 -61 0 -12 -13 -42
-30 -66 -16 -24 -36 -67 -45 -95 -8 -28 -23 -62 -33 -75 -11 -13 -25 -41 -31
-61 -7 -21 -28 -56 -47 -79 -19 -22 -34 -49 -34 -59 0 -10 -15 -37 -34 -59
-19 -23 -38 -51 -42 -64 -3 -12 -14 -30 -23 -40 -9 -10 -27 -40 -41 -66 -76
-146 -135 -197 -255 -221 -33 -7 -82 -23 -108 -37 -26 -13 -73 -29 -105 -34
-64 -12 -183 -69 -218 -104 -36 -36 -32 -82 9 -127 19 -20 47 -40 62 -44 39
-10 128 10 188 41 27 14 78 32 113 40 35 8 82 24 104 35 22 11 69 27 105 35
35 9 97 32 136 53 57 29 75 44 86 72 8 19 25 46 38 60 13 14 31 42 39 62 9 20
21 40 27 43 6 4 23 35 39 70 29 65 42 75 92 75 21 0 41 -11 68 -37 21 -21 57
-54 79 -73 23 -19 56 -49 74 -66 18 -17 47 -39 66 -49 33 -16 33 -18 29 -72
-4 -48 -9 -59 -41 -87 -19 -17 -86 -89 -149 -161 -197 -226 -188 -214 -188
-263 0 -36 5 -48 30 -70 17 -15 30 -36 30 -49 0 -22 4 -23 64 -23 62 0 64 1
69 30 4 19 17 35 37 45 16 8 30 19 30 24 0 5 15 24 34 42 19 19 118 130 220
248 197 227 205 239 192 324 -6 41 -15 50 -109 130 -56 47 -113 96 -127 109
-14 13 -42 35 -62 51 -26 18 -38 35 -38 51 0 27 50 144 79 185 10 14 24 45 30
67 6 23 22 58 36 79 14 20 30 59 36 86 6 27 19 59 29 71 18 22 20 22 62 8 44
-15 56 -35 73 -122 7 -38 31 -58 71 -58 40 0 88 22 124 56 14 13 84 74 155
135 146 125 195 175 195 199 0 17 -73 100 -87 100 -8 0 -23 -10 -89 -55 -60
-40 -131 -102 -169 -147 -21 -25 -89 -24 -114 1 -10 10 -24 43 -30 72 -6 29
-25 76 -41 104 -17 29 -30 65 -30 80 0 33 67 103 128 134 23 12 42 26 42 32 0
5 19 19 43 29 23 10 52 29 63 42 12 13 34 31 50 41 16 9 43 27 60 40 18 12 40
27 50 33 18 11 16 14 -20 47 -22 20 -60 41 -85 48 -25 6 -57 22 -71 35 -14 12
-49 29 -78 38 -29 8 -66 26 -82 40 -16 13 -44 27 -62 31 -65 12 -87 26 -100
61 -11 31 -16 34 -50 34 l-38 0 0 -120z"/>
</g>
</svg>
